<svg xmlns="http://www.w3.org/2000/svg" viewBox="0 0 91.89 91.89"><defs><style>.cls-1{fill:#fff;}</style></defs><title>Asset 1</title><g id="Layer_2" data-name="Layer 2"><g id="Layer_1-2" data-name="Layer 1"><path class="cls-1" d="M90.15,41.85,50,1.73a5.92,5.92,0,0,0-8.37,0l-8.33,8.33L43.9,20.63a7,7,0,0,1,8.9,9L63,39.78a7,7,0,1,1-4.22,4l-9.5-9.5v25A7,7,0,1,1,43.48,59V33.81a7,7,0,0,1-3.82-9.23L29.24,14.16,1.73,41.66a5.92,5.92,0,0,0,0,8.37L41.85,90.15a5.92,5.92,0,0,0,8.37,0L90.15,50.22A5.92,5.92,0,0,0,90.15,41.85Z"/></g></g></svg>